<?xml version="1.0" encoding="utf-8" standalone="no"?>
<!DOCTYPE svg PUBLIC "-//W3C//DTD SVG 1.1//EN"
  "http://www.w3.org/Graphics/SVG/1.1/DTD/svg11.dtd">
<!-- Created with matplotlib (https://matplotlib.org/) -->
<svg height="262.19625pt" version="1.1" viewBox="0 0 349.2 262.19625" width="349.2pt" xmlns="http://www.w3.org/2000/svg" xmlns:xlink="http://www.w3.org/1999/xlink">
 <metadata>
  <rdf:RDF xmlns:cc="http://creativecommons.org/ns#" xmlns:dc="http://purl.org/dc/elements/1.1/" xmlns:rdf="http://www.w3.org/1999/02/22-rdf-syntax-ns#">
   <cc:Work>
    <dc:type rdf:resource="http://purl.org/dc/dcmitype/StillImage"/>
    <dc:date>2021-01-07T10:55:18.047521</dc:date>
    <dc:format>image/svg+xml</dc:format>
    <dc:creator>
     <cc:Agent>
      <dc:title>Matplotlib v3.3.2, https://matplotlib.org/</dc:title>
     </cc:Agent>
    </dc:creator>
   </cc:Work>
  </rdf:RDF>
 </metadata>
 <defs>
  <style type="text/css">*{stroke-linecap:butt;stroke-linejoin:round;}</style>
 </defs>
 <g id="figure_1">
  <g id="patch_1">
   <path d="M 0 262.19625 
L 349.2 262.19625 
L 349.2 0 
L 0 0 
z
" style="fill:none;"/>
  </g>
  <g id="axes_1">
   <g id="patch_2">
    <path d="M 7.2 224.64 
L 342 224.64 
L 342 7.2 
L 7.2 7.2 
z
" style="fill:#ffffff;"/>
   </g>
   <g id="PolyCollection_1">
    <defs>
     <path d="M 22.418182 -39.856786 
L 22.418182 -37.55625 
L 23.947647 -37.55625 
L 25.477113 -37.55625 
L 27.006578 -37.55625 
L 28.536044 -37.55625 
L 30.065509 -37.55625 
L 31.594975 -37.55625 
L 33.12444 -37.55625 
L 34.653906 -37.55625 
L 36.183371 -37.55625 
L 37.712837 -37.55625 
L 39.242302 -37.55625 
L 40.771768 -37.55625 
L 42.301233 -37.55625 
L 43.830699 -37.55625 
L 45.360164 -37.55625 
L 46.88963 -37.55625 
L 48.419095 -37.55625 
L 49.948561 -37.55625 
L 51.478026 -37.55625 
L 53.007492 -37.55625 
L 54.536958 -37.55625 
L 56.066423 -37.55625 
L 57.595889 -37.55625 
L 59.125354 -37.55625 
L 60.65482 -37.55625 
L 62.184285 -37.55625 
L 63.713751 -37.55625 
L 65.243216 -37.55625 
L 66.772682 -37.55625 
L 68.302147 -37.55625 
L 69.831613 -37.55625 
L 71.361078 -37.55625 
L 72.890544 -37.55625 
L 74.420009 -37.55625 
L 75.949475 -37.55625 
L 77.47894 -37.55625 
L 79.008406 -37.55625 
L 80.537871 -37.55625 
L 82.067337 -37.55625 
L 83.596802 -37.55625 
L 85.126268 -37.55625 
L 86.655733 -37.55625 
L 88.185199 -37.55625 
L 89.714664 -37.55625 
L 91.24413 -37.55625 
L 92.773595 -37.55625 
L 94.303061 -37.55625 
L 95.832526 -37.55625 
L 97.361992 -37.55625 
L 98.891457 -37.55625 
L 100.420923 -37.55625 
L 101.950388 -37.55625 
L 103.479854 -37.55625 
L 105.009319 -37.55625 
L 106.538785 -37.55625 
L 108.06825 -37.55625 
L 109.597716 -37.55625 
L 111.127181 -37.55625 
L 112.656647 -37.55625 
L 114.186112 -37.55625 
L 115.715578 -37.55625 
L 117.245043 -37.55625 
L 118.774509 -37.55625 
L 120.303974 -37.55625 
L 121.83344 -37.55625 
L 123.362905 -37.55625 
L 124.892371 -37.55625 
L 126.421836 -37.55625 
L 127.951302 -37.55625 
L 129.480767 -37.55625 
L 131.010233 -37.55625 
L 132.539698 -37.55625 
L 134.069164 -37.55625 
L 135.59863 -37.55625 
L 137.128095 -37.55625 
L 138.657561 -37.55625 
L 140.187026 -37.55625 
L 141.716492 -37.55625 
L 143.245957 -37.55625 
L 144.775423 -37.55625 
L 146.304888 -37.55625 
L 147.834354 -37.55625 
L 149.363819 -37.55625 
L 150.893285 -37.55625 
L 152.42275 -37.55625 
L 153.952216 -37.55625 
L 155.481681 -37.55625 
L 157.011147 -37.55625 
L 158.540612 -37.55625 
L 160.070078 -37.55625 
L 161.599543 -37.55625 
L 163.129009 -37.55625 
L 164.658474 -37.55625 
L 166.18794 -37.55625 
L 167.717405 -37.55625 
L 169.246871 -37.55625 
L 170.776336 -37.55625 
L 172.305802 -37.55625 
L 173.835267 -37.55625 
L 175.364733 -37.55625 
L 176.894198 -37.55625 
L 178.423664 -37.55625 
L 179.953129 -37.55625 
L 181.482595 -37.55625 
L 183.01206 -37.55625 
L 184.541526 -37.55625 
L 186.070991 -37.55625 
L 187.600457 -37.55625 
L 189.129922 -37.55625 
L 190.659388 -37.55625 
L 192.188853 -37.55625 
L 193.718319 -37.55625 
L 195.247784 -37.55625 
L 196.77725 -37.55625 
L 198.306715 -37.55625 
L 199.836181 -37.55625 
L 201.365646 -37.55625 
L 202.895112 -37.55625 
L 204.424577 -37.55625 
L 205.954043 -37.55625 
L 207.483508 -37.55625 
L 209.012974 -37.55625 
L 210.542439 -37.55625 
L 212.071905 -37.55625 
L 213.60137 -37.55625 
L 215.130836 -37.55625 
L 216.660302 -37.55625 
L 218.189767 -37.55625 
L 219.719233 -37.55625 
L 221.248698 -37.55625 
L 222.778164 -37.55625 
L 224.307629 -37.55625 
L 225.837095 -37.55625 
L 227.36656 -37.55625 
L 228.896026 -37.55625 
L 230.425491 -37.55625 
L 231.954957 -37.55625 
L 233.484422 -37.55625 
L 235.013888 -37.55625 
L 236.543353 -37.55625 
L 238.072819 -37.55625 
L 239.602284 -37.55625 
L 241.13175 -37.55625 
L 242.661215 -37.55625 
L 244.190681 -37.55625 
L 245.720146 -37.55625 
L 247.249612 -37.55625 
L 248.779077 -37.55625 
L 250.308543 -37.55625 
L 251.838008 -37.55625 
L 253.367474 -37.55625 
L 254.896939 -37.55625 
L 256.426405 -37.55625 
L 257.95587 -37.55625 
L 259.485336 -37.55625 
L 261.014801 -37.55625 
L 262.544267 -37.55625 
L 264.073732 -37.55625 
L 265.603198 -37.55625 
L 267.132663 -37.55625 
L 268.662129 -37.55625 
L 270.191594 -37.55625 
L 271.72106 -37.55625 
L 273.250525 -37.55625 
L 274.779991 -37.55625 
L 276.309456 -37.55625 
L 277.838922 -37.55625 
L 279.368387 -37.55625 
L 280.897853 -37.55625 
L 282.427318 -37.55625 
L 283.956784 -37.55625 
L 285.486249 -37.55625 
L 287.015715 -37.55625 
L 288.54518 -37.55625 
L 290.074646 -37.55625 
L 291.604111 -37.55625 
L 293.133577 -37.55625 
L 294.663042 -37.55625 
L 296.192508 -37.55625 
L 297.721974 -37.55625 
L 299.251439 -37.55625 
L 300.780905 -37.55625 
L 302.31037 -37.55625 
L 303.839836 -37.55625 
L 305.369301 -37.55625 
L 306.898767 -37.55625 
L 308.428232 -37.55625 
L 309.957698 -37.55625 
L 311.487163 -37.55625 
L 313.016629 -37.55625 
L 314.546094 -37.55625 
L 316.07556 -37.55625 
L 317.605025 -37.55625 
L 319.134491 -37.55625 
L 320.663956 -37.55625 
L 322.193422 -37.55625 
L 323.722887 -37.55625 
L 325.252353 -37.55625 
L 326.781818 -37.55625 
L 326.781818 -37.556467 
L 326.781818 -37.556467 
L 325.252353 -37.557109 
L 323.722887 -37.558898 
L 322.193422 -37.562604 
L 320.663956 -37.568117 
L 319.134491 -37.573498 
L 317.605025 -37.575759 
L 316.07556 -37.573423 
L 314.546094 -37.568015 
L 313.016629 -37.562522 
L 311.487163 -37.558852 
L 309.957698 -37.55709 
L 308.428232 -37.556461 
L 306.898767 -37.556291 
L 305.369301 -37.556256 
L 303.839836 -37.556251 
L 302.31037 -37.55625 
L 300.780905 -37.55625 
L 299.251439 -37.55625 
L 297.721974 -37.55625 
L 296.192508 -37.55625 
L 294.663042 -37.55625 
L 293.133577 -37.55625 
L 291.604111 -37.55625 
L 290.074646 -37.55625 
L 288.54518 -37.55625 
L 287.015715 -37.55625 
L 285.486249 -37.55625 
L 283.956784 -37.55625 
L 282.427318 -37.55625 
L 280.897853 -37.55625 
L 279.368387 -37.55625 
L 277.838922 -37.55625 
L 276.309456 -37.55625 
L 274.779991 -37.55625 
L 273.250525 -37.55625 
L 271.72106 -37.55625 
L 270.191594 -37.55625 
L 268.662129 -37.55625 
L 267.132663 -37.55625 
L 265.603198 -37.55625 
L 264.073732 -37.55625 
L 262.544267 -37.55625 
L 261.014801 -37.55625 
L 259.485336 -37.55625 
L 257.95587 -37.55625 
L 256.426405 -37.55625 
L 254.896939 -37.55625 
L 253.367474 -37.55625 
L 251.838008 -37.55625 
L 250.308543 -37.55625 
L 248.779077 -37.55625 
L 247.249612 -37.55625 
L 245.720146 -37.55625 
L 244.190681 -37.55625 
L 242.661215 -37.55625 
L 241.13175 -37.55625 
L 239.602284 -37.55625 
L 238.072819 -37.556256 
L 236.543353 -37.556317 
L 235.013888 -37.556863 
L 233.484422 -37.560614 
L 231.954957 -37.580443 
L 230.425491 -37.660619 
L 228.896026 -37.90665 
L 227.36656 -38.47177 
L 225.837095 -39.417839 
L 224.307629 -40.502109 
L 222.778164 -41.184127 
L 221.248698 -41.033257 
L 219.719233 -40.149659 
L 218.189767 -39.061639 
L 216.660302 -38.236297 
L 215.130836 -37.795329 
L 213.60137 -37.621662 
L 212.071905 -37.570178 
L 210.542439 -37.558558 
L 209.012974 -37.556548 
L 207.483508 -37.55628 
L 205.954043 -37.556252 
L 204.424577 -37.55625 
L 202.895112 -37.55625 
L 201.365646 -37.55625 
L 199.836181 -37.55625 
L 198.306715 -37.55625 
L 196.77725 -37.55625 
L 195.247784 -37.55625 
L 193.718319 -37.55625 
L 192.188853 -37.55625 
L 190.659388 -37.55625 
L 189.129922 -37.55625 
L 187.600457 -37.55625 
L 186.070991 -37.55625 
L 184.541526 -37.55625 
L 183.01206 -37.55625 
L 181.482595 -37.55625 
L 179.953129 -37.55625 
L 178.423664 -37.55625 
L 176.894198 -37.55625 
L 175.364733 -37.55625 
L 173.835267 -37.55625 
L 172.305802 -37.55625 
L 170.776336 -37.55625 
L 169.246871 -37.55625 
L 167.717405 -37.55625 
L 166.18794 -37.55625 
L 164.658474 -37.55625 
L 163.129009 -37.55625 
L 161.599543 -37.55625 
L 160.070078 -37.55625 
L 158.540612 -37.55625 
L 157.011147 -37.55625 
L 155.481681 -37.55625 
L 153.952216 -37.55625 
L 152.42275 -37.55625 
L 150.893285 -37.55625 
L 149.363819 -37.55625 
L 147.834354 -37.55625 
L 146.304888 -37.55625 
L 144.775423 -37.556253 
L 143.245957 -37.556301 
L 141.716492 -37.556906 
L 140.187026 -37.562783 
L 138.657561 -37.606913 
L 137.128095 -37.862003 
L 135.59863 -38.992288 
L 134.069164 -42.805216 
L 132.539698 -52.487425 
L 131.010233 -70.610444 
L 129.480767 -94.503343 
L 127.951302 -113.909745 
L 126.421836 -117.226957 
L 124.892371 -102.252753 
L 123.362905 -78.442316 
L 121.83344 -57.664868 
L 120.303974 -45.252896 
L 118.774509 -39.848876 
L 117.245043 -38.087718 
L 115.715578 -37.652131 
L 114.186112 -37.569712 
L 112.656647 -37.557721 
L 111.127181 -37.556375 
L 109.597716 -37.556258 
L 108.06825 -37.55625 
L 106.538785 -37.55625 
L 105.009319 -37.55625 
L 103.479854 -37.55625 
L 101.950388 -37.55625 
L 100.420923 -37.55625 
L 98.891457 -37.55625 
L 97.361992 -37.55625 
L 95.832526 -37.55625 
L 94.303061 -37.55625 
L 92.773595 -37.55625 
L 91.24413 -37.55625 
L 89.714664 -37.55625 
L 88.185199 -37.55625 
L 86.655733 -37.55625 
L 85.126268 -37.55625 
L 83.596802 -37.55625 
L 82.067337 -37.55625 
L 80.537871 -37.55625 
L 79.008406 -37.55625 
L 77.47894 -37.55625 
L 75.949475 -37.55625 
L 74.420009 -37.55625 
L 72.890544 -37.55625 
L 71.361078 -37.55625 
L 69.831613 -37.55625 
L 68.302147 -37.55625 
L 66.772682 -37.55625 
L 65.243216 -37.55625 
L 63.713751 -37.55625 
L 62.184285 -37.55625 
L 60.65482 -37.55625 
L 59.125354 -37.55625 
L 57.595889 -37.55625 
L 56.066423 -37.55625 
L 54.536958 -37.55625 
L 53.007492 -37.55625 
L 51.478026 -37.55625 
L 49.948561 -37.556253 
L 48.419095 -37.556302 
L 46.88963 -37.556978 
L 45.360164 -37.564152 
L 43.830699 -37.622962 
L 42.301233 -37.994584 
L 40.771768 -39.797638 
L 39.242302 -46.475773 
L 37.712837 -65.179741 
L 36.183371 -104.13381 
L 34.653906 -162.435298 
L 33.12444 -219.846595 
L 31.594975 -244.641964 
L 30.065509 -220.639662 
L 28.536044 -163.524252 
L 27.006578 -105.006547 
L 25.477113 -65.663598 
L 23.947647 -46.671493 
L 22.418182 -39.856786 
z
" id="m7ae53f9ec3" style="stroke:#1f77b4;"/>
    </defs>
    <g clip-path="url(#p94a94b4f78)">
     <use style="fill:#1f77b4;fill-opacity:0.25;stroke:#1f77b4;" x="0" xlink:href="#m7ae53f9ec3" y="262.19625"/>
    </g>
   </g>
   <g id="matplotlib.axis_1">
    <g id="xtick_1">
     <g id="line2d_1">
      <defs>
       <path d="M 0 0 
L 0 3.5 
" id="m8ab4c0fa0a" style="stroke:#000000;stroke-width:0.8;"/>
      </defs>
      <g>
       <use style="stroke:#000000;stroke-width:0.8;" x="31.581734" xlink:href="#m8ab4c0fa0a" y="224.64"/>
      </g>
     </g>
     <g id="text_1">
      <!-- 0.0 -->
      <g transform="translate(23.630171 239.238437)scale(0.1 -0.1)">
       <defs>
        <path d="M 31.78125 66.40625 
Q 24.171875 66.40625 20.328125 58.90625 
Q 16.5 51.421875 16.5 36.375 
Q 16.5 21.390625 20.328125 13.890625 
Q 24.171875 6.390625 31.78125 6.390625 
Q 39.453125 6.390625 43.28125 13.890625 
Q 47.125 21.390625 47.125 36.375 
Q 47.125 51.421875 43.28125 58.90625 
Q 39.453125 66.40625 31.78125 66.40625 
z
M 31.78125 74.21875 
Q 44.046875 74.21875 50.515625 64.515625 
Q 56.984375 54.828125 56.984375 36.375 
Q 56.984375 17.96875 50.515625 8.265625 
Q 44.046875 -1.421875 31.78125 -1.421875 
Q 19.53125 -1.421875 13.0625 8.265625 
Q 6.59375 17.96875 6.59375 36.375 
Q 6.59375 54.828125 13.0625 64.515625 
Q 19.53125 74.21875 31.78125 74.21875 
z
" id="DejaVuSans-48"/>
        <path d="M 10.6875 12.40625 
L 21 12.40625 
L 21 0 
L 10.6875 0 
z
" id="DejaVuSans-46"/>
       </defs>
       <use xlink:href="#DejaVuSans-48"/>
       <use x="63.623047" xlink:href="#DejaVuSans-46"/>
       <use x="95.410156" xlink:href="#DejaVuSans-48"/>
      </g>
     </g>
    </g>
    <g id="xtick_2">
     <g id="line2d_2">
      <g>
       <use style="stroke:#000000;stroke-width:0.8;" x="98.675739" xlink:href="#m8ab4c0fa0a" y="224.64"/>
      </g>
     </g>
     <g id="text_2">
      <!-- 0.1 -->
      <g transform="translate(90.724176 239.238437)scale(0.1 -0.1)">
       <defs>
        <path d="M 12.40625 8.296875 
L 28.515625 8.296875 
L 28.515625 63.921875 
L 10.984375 60.40625 
L 10.984375 69.390625 
L 28.421875 72.90625 
L 38.28125 72.90625 
L 38.28125 8.296875 
L 54.390625 8.296875 
L 54.390625 0 
L 12.40625 0 
z
" id="DejaVuSans-49"/>
       </defs>
       <use xlink:href="#DejaVuSans-48"/>
       <use x="63.623047" xlink:href="#DejaVuSans-46"/>
       <use x="95.410156" xlink:href="#DejaVuSans-49"/>
      </g>
     </g>
    </g>
    <g id="xtick_3">
     <g id="line2d_3">
      <g>
       <use style="stroke:#000000;stroke-width:0.8;" x="165.769744" xlink:href="#m8ab4c0fa0a" y="224.64"/>
      </g>
     </g>
     <g id="text_3">
      <!-- 0.2 -->
      <g transform="translate(157.818181 239.238437)scale(0.1 -0.1)">
       <defs>
        <path d="M 19.1875 8.296875 
L 53.609375 8.296875 
L 53.609375 0 
L 7.328125 0 
L 7.328125 8.296875 
Q 12.9375 14.109375 22.625 23.890625 
Q 32.328125 33.6875 34.8125 36.53125 
Q 39.546875 41.84375 41.421875 45.53125 
Q 43.3125 49.21875 43.3125 52.78125 
Q 43.3125 58.59375 39.234375 62.25 
Q 35.15625 65.921875 28.609375 65.921875 
Q 23.96875 65.921875 18.8125 64.3125 
Q 13.671875 62.703125 7.8125 59.421875 
L 7.8125 69.390625 
Q 13.765625 71.78125 18.9375 73 
Q 24.125 74.21875 28.421875 74.21875 
Q 39.75 74.21875 46.484375 68.546875 
Q 53.21875 62.890625 53.21875 53.421875 
Q 53.21875 48.921875 51.53125 44.890625 
Q 49.859375 40.875 45.40625 35.40625 
Q 44.1875 33.984375 37.640625 27.21875 
Q 31.109375 20.453125 19.1875 8.296875 
z
" id="DejaVuSans-50"/>
       </defs>
       <use xlink:href="#DejaVuSans-48"/>
       <use x="63.623047" xlink:href="#DejaVuSans-46"/>
       <use x="95.410156" xlink:href="#DejaVuSans-50"/>
      </g>
     </g>
    </g>
    <g id="xtick_4">
     <g id="line2d_4">
      <g>
       <use style="stroke:#000000;stroke-width:0.8;" x="232.863748" xlink:href="#m8ab4c0fa0a" y="224.64"/>
      </g>
     </g>
     <g id="text_4">
      <!-- 0.3 -->
      <g transform="translate(224.912186 239.238437)scale(0.1 -0.1)">
       <defs>
        <path d="M 40.578125 39.3125 
Q 47.65625 37.796875 51.625 33 
Q 55.609375 28.21875 55.609375 21.1875 
Q 55.609375 10.40625 48.1875 4.484375 
Q 40.765625 -1.421875 27.09375 -1.421875 
Q 22.515625 -1.421875 17.65625 -0.515625 
Q 12.796875 0.390625 7.625 2.203125 
L 7.625 11.71875 
Q 11.71875 9.328125 16.59375 8.109375 
Q 21.484375 6.890625 26.8125 6.890625 
Q 36.078125 6.890625 40.9375 10.546875 
Q 45.796875 14.203125 45.796875 21.1875 
Q 45.796875 27.640625 41.28125 31.265625 
Q 36.765625 34.90625 28.71875 34.90625 
L 20.21875 34.90625 
L 20.21875 43.015625 
L 29.109375 43.015625 
Q 36.375 43.015625 40.234375 45.921875 
Q 44.09375 48.828125 44.09375 54.296875 
Q 44.09375 59.90625 40.109375 62.90625 
Q 36.140625 65.921875 28.71875 65.921875 
Q 24.65625 65.921875 20.015625 65.03125 
Q 15.375 64.15625 9.8125 62.3125 
L 9.8125 71.09375 
Q 15.4375 72.65625 20.34375 73.4375 
Q 25.25 74.21875 29.59375 74.21875 
Q 40.828125 74.21875 47.359375 69.109375 
Q 53.90625 64.015625 53.90625 55.328125 
Q 53.90625 49.265625 50.4375 45.09375 
Q 46.96875 40.921875 40.578125 39.3125 
z
" id="DejaVuSans-51"/>
       </defs>
       <use xlink:href="#DejaVuSans-48"/>
       <use x="63.623047" xlink:href="#DejaVuSans-46"/>
       <use x="95.410156" xlink:href="#DejaVuSans-51"/>
      </g>
     </g>
    </g>
    <g id="xtick_5">
     <g id="line2d_5">
      <g>
       <use style="stroke:#000000;stroke-width:0.8;" x="299.957753" xlink:href="#m8ab4c0fa0a" y="224.64"/>
      </g>
     </g>
     <g id="text_5">
      <!-- 0.4 -->
      <g transform="translate(292.006191 239.238437)scale(0.1 -0.1)">
       <defs>
        <path d="M 37.796875 64.3125 
L 12.890625 25.390625 
L 37.796875 25.390625 
z
M 35.203125 72.90625 
L 47.609375 72.90625 
L 47.609375 25.390625 
L 58.015625 25.390625 
L 58.015625 17.1875 
L 47.609375 17.1875 
L 47.609375 0 
L 37.796875 0 
L 37.796875 17.1875 
L 4.890625 17.1875 
L 4.890625 26.703125 
z
" id="DejaVuSans-52"/>
       </defs>
       <use xlink:href="#DejaVuSans-48"/>
       <use x="63.623047" xlink:href="#DejaVuSans-46"/>
       <use x="95.410156" xlink:href="#DejaVuSans-52"/>
      </g>
     </g>
    </g>
    <g id="text_6">
     <!-- HRV Reflectance -->
     <g transform="translate(133.311719 252.916562)scale(0.1 -0.1)">
      <defs>
       <path d="M 9.8125 72.90625 
L 19.671875 72.90625 
L 19.671875 43.015625 
L 55.515625 43.015625 
L 55.515625 72.90625 
L 65.375 72.90625 
L 65.375 0 
L 55.515625 0 
L 55.515625 34.71875 
L 19.671875 34.71875 
L 19.671875 0 
L 9.8125 0 
z
" id="DejaVuSans-72"/>
       <path d="M 44.390625 34.1875 
Q 47.5625 33.109375 50.5625 29.59375 
Q 53.5625 26.078125 56.59375 19.921875 
L 66.609375 0 
L 56 0 
L 46.6875 18.703125 
Q 43.0625 26.03125 39.671875 28.421875 
Q 36.28125 30.8125 30.421875 30.8125 
L 19.671875 30.8125 
L 19.671875 0 
L 9.8125 0 
L 9.8125 72.90625 
L 32.078125 72.90625 
Q 44.578125 72.90625 50.734375 67.671875 
Q 56.890625 62.453125 56.890625 51.90625 
Q 56.890625 45.015625 53.6875 40.46875 
Q 50.484375 35.9375 44.390625 34.1875 
z
M 19.671875 64.796875 
L 19.671875 38.921875 
L 32.078125 38.921875 
Q 39.203125 38.921875 42.84375 42.21875 
Q 46.484375 45.515625 46.484375 51.90625 
Q 46.484375 58.296875 42.84375 61.546875 
Q 39.203125 64.796875 32.078125 64.796875 
z
" id="DejaVuSans-82"/>
       <path d="M 28.609375 0 
L 0.78125 72.90625 
L 11.078125 72.90625 
L 34.1875 11.53125 
L 57.328125 72.90625 
L 67.578125 72.90625 
L 39.796875 0 
z
" id="DejaVuSans-86"/>
       <path id="DejaVuSans-32"/>
       <path d="M 56.203125 29.59375 
L 56.203125 25.203125 
L 14.890625 25.203125 
Q 15.484375 15.921875 20.484375 11.0625 
Q 25.484375 6.203125 34.421875 6.203125 
Q 39.59375 6.203125 44.453125 7.46875 
Q 49.3125 8.734375 54.109375 11.28125 
L 54.109375 2.78125 
Q 49.265625 0.734375 44.1875 -0.34375 
Q 39.109375 -1.421875 33.890625 -1.421875 
Q 20.796875 -1.421875 13.15625 6.1875 
Q 5.515625 13.8125 5.515625 26.8125 
Q 5.515625 40.234375 12.765625 48.109375 
Q 20.015625 56 32.328125 56 
Q 43.359375 56 49.78125 48.890625 
Q 56.203125 41.796875 56.203125 29.59375 
z
M 47.21875 32.234375 
Q 47.125 39.59375 43.09375 43.984375 
Q 39.0625 48.390625 32.421875 48.390625 
Q 24.90625 48.390625 20.390625 44.140625 
Q 15.875 39.890625 15.1875 32.171875 
z
" id="DejaVuSans-101"/>
       <path d="M 37.109375 75.984375 
L 37.109375 68.5 
L 28.515625 68.5 
Q 23.6875 68.5 21.796875 66.546875 
Q 19.921875 64.59375 19.921875 59.515625 
L 19.921875 54.6875 
L 34.71875 54.6875 
L 34.71875 47.703125 
L 19.921875 47.703125 
L 19.921875 0 
L 10.890625 0 
L 10.890625 47.703125 
L 2.296875 47.703125 
L 2.296875 54.6875 
L 10.890625 54.6875 
L 10.890625 58.5 
Q 10.890625 67.625 15.140625 71.796875 
Q 19.390625 75.984375 28.609375 75.984375 
z
" id="DejaVuSans-102"/>
       <path d="M 9.421875 75.984375 
L 18.40625 75.984375 
L 18.40625 0 
L 9.421875 0 
z
" id="DejaVuSans-108"/>
       <path d="M 48.78125 52.59375 
L 48.78125 44.1875 
Q 44.96875 46.296875 41.140625 47.34375 
Q 37.3125 48.390625 33.40625 48.390625 
Q 24.65625 48.390625 19.8125 42.84375 
Q 14.984375 37.3125 14.984375 27.296875 
Q 14.984375 17.28125 19.8125 11.734375 
Q 24.65625 6.203125 33.40625 6.203125 
Q 37.3125 6.203125 41.140625 7.25 
Q 44.96875 8.296875 48.78125 10.40625 
L 48.78125 2.09375 
Q 45.015625 0.34375 40.984375 -0.53125 
Q 36.96875 -1.421875 32.421875 -1.421875 
Q 20.0625 -1.421875 12.78125 6.34375 
Q 5.515625 14.109375 5.515625 27.296875 
Q 5.515625 40.671875 12.859375 48.328125 
Q 20.21875 56 33.015625 56 
Q 37.15625 56 41.109375 55.140625 
Q 45.0625 54.296875 48.78125 52.59375 
z
" id="DejaVuSans-99"/>
       <path d="M 18.3125 70.21875 
L 18.3125 54.6875 
L 36.8125 54.6875 
L 36.8125 47.703125 
L 18.3125 47.703125 
L 18.3125 18.015625 
Q 18.3125 11.328125 20.140625 9.421875 
Q 21.96875 7.515625 27.59375 7.515625 
L 36.8125 7.515625 
L 36.8125 0 
L 27.59375 0 
Q 17.1875 0 13.234375 3.875 
Q 9.28125 7.765625 9.28125 18.015625 
L 9.28125 47.703125 
L 2.6875 47.703125 
L 2.6875 54.6875 
L 9.28125 54.6875 
L 9.28125 70.21875 
z
" id="DejaVuSans-116"/>
       <path d="M 34.28125 27.484375 
Q 23.390625 27.484375 19.1875 25 
Q 14.984375 22.515625 14.984375 16.5 
Q 14.984375 11.71875 18.140625 8.90625 
Q 21.296875 6.109375 26.703125 6.109375 
Q 34.1875 6.109375 38.703125 11.40625 
Q 43.21875 16.703125 43.21875 25.484375 
L 43.21875 27.484375 
z
M 52.203125 31.203125 
L 52.203125 0 
L 43.21875 0 
L 43.21875 8.296875 
Q 40.140625 3.328125 35.546875 0.953125 
Q 30.953125 -1.421875 24.3125 -1.421875 
Q 15.921875 -1.421875 10.953125 3.296875 
Q 6 8.015625 6 15.921875 
Q 6 25.140625 12.171875 29.828125 
Q 18.359375 34.515625 30.609375 34.515625 
L 43.21875 34.515625 
L 43.21875 35.40625 
Q 43.21875 41.609375 39.140625 45 
Q 35.0625 48.390625 27.6875 48.390625 
Q 23 48.390625 18.546875 47.265625 
Q 14.109375 46.140625 10.015625 43.890625 
L 10.015625 52.203125 
Q 14.9375 54.109375 19.578125 55.046875 
Q 24.21875 56 28.609375 56 
Q 40.484375 56 46.34375 49.84375 
Q 52.203125 43.703125 52.203125 31.203125 
z
" id="DejaVuSans-97"/>
       <path d="M 54.890625 33.015625 
L 54.890625 0 
L 45.90625 0 
L 45.90625 32.71875 
Q 45.90625 40.484375 42.875 44.328125 
Q 39.84375 48.1875 33.796875 48.1875 
Q 26.515625 48.1875 22.3125 43.546875 
Q 18.109375 38.921875 18.109375 30.90625 
L 18.109375 0 
L 9.078125 0 
L 9.078125 54.6875 
L 18.109375 54.6875 
L 18.109375 46.1875 
Q 21.34375 51.125 25.703125 53.5625 
Q 30.078125 56 35.796875 56 
Q 45.21875 56 50.046875 50.171875 
Q 54.890625 44.34375 54.890625 33.015625 
z
" id="DejaVuSans-110"/>
      </defs>
      <use xlink:href="#DejaVuSans-72"/>
      <use x="75.195312" xlink:href="#DejaVuSans-82"/>
      <use x="139.177734" xlink:href="#DejaVuSans-86"/>
      <use x="207.585938" xlink:href="#DejaVuSans-32"/>
      <use x="239.373047" xlink:href="#DejaVuSans-82"/>
      <use x="304.355469" xlink:href="#DejaVuSans-101"/>
      <use x="365.878906" xlink:href="#DejaVuSans-102"/>
      <use x="401.083984" xlink:href="#DejaVuSans-108"/>
      <use x="428.867188" xlink:href="#DejaVuSans-101"/>
      <use x="490.390625" xlink:href="#DejaVuSans-99"/>
      <use x="545.371094" xlink:href="#DejaVuSans-116"/>
      <use x="584.580078" xlink:href="#DejaVuSans-97"/>
      <use x="645.859375" xlink:href="#DejaVuSans-110"/>
      <use x="709.238281" xlink:href="#DejaVuSans-99"/>
      <use x="764.21875" xlink:href="#DejaVuSans-101"/>
     </g>
    </g>
   </g>
   <g id="matplotlib.axis_2"/>
   <g id="patch_3">
    <path d="M 7.2 224.64 
L 342 224.64 
" style="fill:none;stroke:#000000;stroke-linecap:square;stroke-linejoin:miter;stroke-width:0.8;"/>
   </g>
  </g>
 </g>
 <defs>
  <clipPath id="p94a94b4f78">
   <rect height="217.44" width="334.8" x="7.2" y="7.2"/>
  </clipPath>
 </defs>
</svg>
